<?xml version="1.0" standalone="no"?>
<!DOCTYPE svg PUBLIC "-//W3C//DTD SVG 20010904//EN"
 "http://www.w3.org/TR/2001/REC-SVG-20010904/DTD/svg10.dtd">
<svg version="1.0" xmlns="http://www.w3.org/2000/svg"
 width="1280.000000pt" height="1280.000000pt" viewBox="0 0 1280.000000 1280.000000"
 preserveAspectRatio="xMidYMid meet">
<g transform="translate(0.000000,1280.000000) scale(0.100000,-0.100000)"
fill="#000000" stroke="none">
<path d="M7876 12180 c-27 -11 -101 -83 -88 -87 15 -6 16 -25 0 -41 -8 -8 -15
-8 -24 -1 -9 7 -18 0 -34 -26 -16 -26 -26 -33 -33 -26 -8 8 -1 21 23 46 25 26
30 35 17 35 -9 0 -17 7 -17 15 0 22 -8 19 -36 -14 -14 -17 -35 -33 -47 -37
-12 -4 -38 -20 -59 -36 -20 -17 -41 -27 -46 -24 -6 3 -24 -6 -42 -20 -46 -40
-47 -22 -1 43 45 65 48 73 26 73 -8 0 -15 5 -15 10 0 22 -21 8 -41 -28 -12
-20 -32 -45 -45 -55 -22 -17 -24 -17 -35 5 -7 12 -18 29 -26 36 -11 11 -13 10
-13 -10 0 -14 -13 -37 -30 -53 -16 -16 -30 -35 -30 -42 0 -7 -7 -13 -16 -13
-13 0 -14 3 -4 15 6 8 10 20 8 26 -2 7 -14 -1 -27 -19 -23 -33 -48 -44 -37
-17 3 8 2 15 -3 15 -11 0 -36 -31 -44 -52 -4 -10 -11 -18 -17 -18 -12 0 -4 65
12 97 17 34 6 37 -42 12 -27 -14 -46 -32 -52 -52 -8 -20 -13 -25 -19 -16 -4 7
-3 21 2 30 13 25 12 29 -11 29 -11 0 -20 -7 -20 -15 0 -20 -36 -19 -44 0 -4
12 -11 13 -23 7 -10 -5 -23 -7 -30 -5 -6 2 -17 -5 -23 -17 -9 -17 -17 -20 -40
-15 -16 3 -31 2 -35 -4 -10 -17 -23 -13 -27 7 -3 13 -15 5 -53 -36 -46 -49
-52 -52 -77 -43 -25 9 -26 12 -16 41 5 17 8 34 5 37 -7 7 -57 -95 -57 -117 0
-8 -6 -24 -14 -35 -7 -11 -15 -29 -17 -39 -2 -11 -8 -19 -14 -18 -10 3 -7 71
4 87 4 6 12 22 19 38 15 35 -1 36 -34 0 -14 -15 -33 -28 -42 -28 -8 0 -25 -16
-36 -36 -35 -61 -80 -118 -94 -119 -19 0 -26 28 -13 53 6 12 29 50 51 85 l40
62 -42 -21 c-44 -22 -160 -132 -193 -182 -10 -16 -24 -26 -31 -23 -8 3 -24
-14 -40 -42 -15 -26 -30 -49 -33 -52 -18 -16 -51 -72 -51 -88 0 -20 -39 -62
-58 -62 -6 0 -9 7 -5 17 11 28 -14 6 -47 -43 -17 -24 -37 -44 -45 -44 -8 0
-19 -10 -26 -22 -6 -13 -24 -36 -38 -53 -15 -16 -34 -49 -41 -72 -12 -40 -44
-73 -71 -73 -6 0 -9 7 -5 15 3 9 0 15 -10 15 -8 0 -13 -4 -10 -9 8 -12 -30
-58 -39 -49 -4 4 -7 19 -7 33 0 40 0 41 -72 -95 -25 -46 -39 -95 -40 -135 -1
-45 -12 -69 -30 -62 -7 3 -36 -28 -66 -69 -30 -41 -60 -74 -66 -74 -18 0 -29
-38 -25 -92 2 -36 -2 -54 -20 -78 -13 -17 -29 -28 -35 -26 -13 5 -64 -54 -64
-73 0 -6 -14 -26 -31 -46 -28 -31 -32 -43 -33 -98 -1 -54 -4 -63 -24 -72 -21
-9 -26 -21 -48 -110 -5 -20 -5 -20 10 -1 9 11 16 26 16 33 0 10 5 11 18 5 9
-5 23 -7 31 -4 11 3 12 -3 7 -29 -4 -19 -11 -77 -15 -129 -5 -52 -15 -111 -24
-130 -8 -19 -18 -43 -21 -54 -4 -11 -12 -16 -21 -12 -8 3 -15 1 -15 -4 0 -5 9
-12 20 -15 23 -7 25 -18 10 -46 -7 -13 -7 -19 0 -19 14 0 12 -32 -4 -52 -20
-28 -39 -23 -32 8 l7 26 -36 -28 c-20 -15 -41 -37 -47 -48 -10 -20 -10 -20 14
2 13 12 32 22 41 22 18 0 23 -25 7 -35 -12 -8 -13 -25 -1 -25 5 0 11 9 14 20
3 11 10 20 17 20 6 0 8 -5 5 -10 -4 -6 5 -20 19 -31 14 -11 26 -28 26 -38 0
-9 -25 -44 -55 -76 -37 -40 -60 -77 -71 -110 -9 -27 -22 -63 -29 -80 -9 -19
-10 -34 -4 -41 6 -8 2 -28 -11 -59 -11 -25 -20 -53 -20 -61 0 -8 -11 -42 -25
-75 -19 -49 -22 -64 -13 -79 9 -14 9 -25 0 -44 -10 -23 -9 -29 8 -46 27 -27
39 -25 51 10 6 17 15 30 20 30 11 0 11 2 -5 -99 -16 -100 -15 -112 10 -125 40
-23 38 -44 -9 -89 -17 -16 -27 -33 -24 -42 4 -8 2 -17 -3 -20 -6 -4 -10 -18
-10 -33 0 -15 -4 -33 -9 -41 -5 -7 -4 -27 2 -47 8 -27 6 -42 -11 -83 -20 -48
-20 -50 -2 -39 40 25 37 -6 -16 -137 -7 -18 -6 -19 10 -6 25 21 46 -2 23 -26
-9 -10 -40 -44 -68 -76 -53 -57 -63 -60 -71 -22 -3 14 -9 4 -19 -30 -13 -46
-19 -52 -68 -77 -30 -16 -47 -28 -38 -28 9 0 17 -4 17 -9 0 -14 -52 -44 -59
-35 -3 5 -16 14 -27 21 -19 10 -25 8 -44 -12 -12 -13 -39 -27 -61 -30 -29 -5
-43 -14 -58 -41 -20 -33 -41 -45 -41 -23 0 14 39 70 60 86 13 11 11 12 -12 13
-20 0 -32 -9 -52 -44 -29 -49 -89 -106 -112 -106 -17 0 -53 -38 -54 -55 0 -6
-10 -16 -22 -24 -22 -13 -22 -13 -7 10 23 36 30 74 19 104 l-10 26 -45 -36
c-24 -20 -49 -34 -55 -30 -6 4 -18 -1 -25 -11 -13 -17 -14 -12 -8 41 5 55 4
59 -11 46 -9 -8 -16 -28 -16 -47 0 -19 -5 -34 -11 -34 -6 0 -9 9 -6 20 3 13 0
20 -9 20 -17 0 -19 61 -4 91 12 22 2 25 -25 5 -11 -8 -16 -20 -12 -29 6 -17
-66 -137 -83 -137 -16 0 -12 10 15 42 14 16 25 36 25 44 0 13 -3 13 -22 0 -31
-22 -52 -21 -43 2 13 34 13 51 0 62 -10 8 -17 3 -31 -27 -18 -35 -93 -103
-115 -103 -18 0 -9 32 11 37 11 3 20 10 20 15 0 5 -4 7 -9 3 -17 -10 -21 11
-6 31 14 19 20 54 9 54 -9 0 -43 -44 -44 -56 0 -17 -50 -14 -50 2 0 10 -9 9
-35 -6 -20 -11 -42 -20 -50 -20 -20 0 -19 29 2 52 12 13 14 23 6 40 -9 20 -10
20 -26 -13 -18 -39 -54 -76 -64 -66 -3 4 2 16 12 27 10 11 16 23 13 25 -3 3
-36 -24 -73 -60 -68 -65 -92 -78 -61 -31 21 32 20 39 -2 27 -9 -5 -32 -38 -49
-74 -18 -35 -39 -70 -48 -77 -8 -7 -15 -19 -15 -27 0 -8 -13 -32 -29 -52 -15
-20 -33 -46 -40 -58 -11 -22 -11 -22 14 -11 14 6 25 17 25 23 0 7 6 18 14 24
21 18 27 1 32 -87 3 -42 6 -82 9 -89 2 -7 -7 -40 -22 -75 -18 -44 -22 -67 -15
-78 7 -10 5 -24 -5 -44 -22 -42 -33 -86 -23 -86 5 0 14 9 20 20 19 36 30 21
30 -41 0 -37 4 -58 10 -54 5 3 10 -1 10 -10 0 -9 -4 -13 -10 -10 -6 3 -10 -4
-10 -17 0 -13 -9 -38 -20 -56 -11 -18 -20 -44 -20 -58 l0 -26 29 24 c16 13 31
32 33 43 2 11 11 21 21 23 25 5 22 -33 -8 -85 -26 -44 -70 -160 -84 -223 -4
-19 -15 -50 -25 -68 -9 -18 -15 -39 -13 -45 2 -7 11 4 19 23 20 45 75 120 89
120 13 0 5 -26 -36 -115 -33 -71 -52 -124 -42 -115 17 16 55 80 61 104 6 26
31 45 43 32 4 -3 1 -12 -5 -18 -7 -7 -12 -24 -12 -39 0 -15 -9 -48 -20 -74
-24 -56 -25 -65 -4 -65 12 0 13 -5 7 -22 -4 -13 -6 -42 -5 -66 1 -26 -4 -53
-15 -70 l-17 -27 24 20 c14 11 29 26 33 33 10 14 37 16 37 2 0 -5 7 -10 15
-10 13 0 15 -8 10 -37 -13 -81 -17 -92 -41 -124 -22 -30 -24 -40 -18 -94 10
-96 34 -104 40 -14 5 61 11 72 31 65 9 -4 22 -1 29 5 29 24 26 -21 -6 -86 -29
-60 -39 -70 -64 -66 -18 3 -36 -23 -35 -53 0 -17 3 -25 6 -18 8 20 31 14 35
-10 2 -16 12 -5 38 47 22 44 46 75 65 86 41 24 45 23 45 -7 0 -14 7 -32 15
-41 9 -9 13 -23 10 -34 -4 -10 -2 -19 3 -19 14 0 25 39 23 77 -2 18 1 37 4 43
12 19 34 -22 35 -62 0 -21 4 -38 8 -38 5 0 13 -12 18 -27 l10 -28 14 25 c8 14
17 45 20 69 3 25 10 46 17 48 6 2 22 -17 34 -44 l23 -48 4 35 c4 42 19 61 28
37 3 -9 12 -17 19 -17 19 0 26 -26 15 -56 -13 -33 -13 -64 0 -64 6 0 10 13 10
29 0 17 5 33 12 37 16 10 38 -25 38 -63 0 -18 5 -33 11 -33 6 0 9 6 6 14 -3 8
3 22 14 32 20 18 21 18 40 -6 l19 -25 0 77 c0 45 5 80 11 84 14 8 29 -14 29
-42 0 -12 7 -24 15 -28 16 -6 21 -46 6 -46 -5 0 -9 -16 -8 -36 1 -30 3 -33 13
-20 16 23 22 20 29 -14 4 -17 11 -30 16 -30 13 0 11 37 -2 46 -10 6 -7 49 7
97 8 27 24 9 24 -28 0 -20 6 -35 15 -39 9 -3 15 0 15 9 0 8 5 15 10 15 6 0 10
9 10 21 0 17 5 15 34 -17 32 -34 33 -35 39 -14 9 34 41 22 45 -18 4 -43 16
-40 30 7 12 39 37 69 44 54 3 -4 13 -36 24 -70 10 -35 22 -63 26 -63 5 0 8
-19 8 -42 0 -42 0 -43 15 -18 8 14 17 31 21 38 4 8 0 29 -9 48 -21 44 -14 70
14 46 10 -9 19 -22 19 -29 0 -7 5 -13 11 -13 5 0 8 4 5 9 -9 15 5 41 21 41 9
0 21 7 28 17 20 27 45 9 45 -32 0 -19 5 -35 10 -35 6 0 10 14 10 30 0 19 5 30
14 30 8 0 21 3 30 6 12 5 16 0 16 -20 0 -16 6 -26 15 -26 8 0 19 -8 24 -19 6
-10 20 -21 32 -24 20 -5 21 -3 15 32 -4 27 -2 42 8 50 12 10 15 7 18 -16 2
-21 9 -29 27 -31 18 -3 22 0 18 12 -7 17 35 70 46 59 4 -3 7 -19 7 -34 0 -15
7 -34 15 -43 8 -8 15 -18 15 -23 0 -4 9 -19 19 -32 15 -20 21 -22 39 -12 32
17 48 -18 32 -72 -9 -32 -9 -45 1 -64 15 -28 35 -30 44 -3 3 11 12 20 18 20
15 0 37 46 37 77 0 32 13 29 29 -7 15 -35 9 -48 -48 -109 -17 -18 -31 -41 -31
-51 0 -10 -7 -23 -15 -30 -14 -12 -21 -50 -9 -50 3 0 14 10 24 23 13 15 22 19
29 12 7 -7 4 -24 -12 -56 -44 -91 -63 -154 -48 -163 18 -11 -37 -138 -57 -131
-13 5 -16 0 -27 -50 -6 -28 -6 -29 13 -12 29 26 35 21 29 -24 l-5 -41 26 24
c14 12 32 29 40 36 17 15 20 15 38 -2 8 -8 11 -22 8 -30 -7 -19 -21 -21 -26
-4 -4 11 -48 -55 -48 -73 0 -18 20 -9 36 17 25 37 36 16 19 -39 -11 -37 -11
-47 -2 -47 7 0 18 5 25 12 9 9 12 5 12 -21 0 -24 -5 -34 -19 -38 -11 -3 -25
-18 -31 -33 -7 -16 -20 -36 -31 -46 -10 -9 -19 -23 -19 -29 0 -7 -7 -18 -16
-26 -8 -7 -22 -26 -31 -43 -14 -26 -14 -29 -1 -19 8 7 18 10 22 6 3 -4 13 2
20 13 25 34 31 5 8 -41 -12 -25 -17 -45 -11 -45 5 0 15 14 20 30 6 17 16 30
23 30 18 0 35 53 22 72 -7 12 -6 21 3 32 20 24 34 19 29 -9 -3 -14 -1 -28 3
-31 17 -10 9 -54 -11 -66 -11 -7 -20 -22 -20 -33 0 -11 -8 -36 -19 -55 -22
-42 -38 -93 -22 -70 18 25 12 -4 -9 -45 -11 -22 -20 -51 -19 -65 l1 -25 11 28
c11 26 27 37 27 17 0 -5 7 -10 15 -10 11 0 15 -12 17 -42 0 -24 0 -50 -2 -58
-1 -8 -2 -36 -1 -62 1 -32 -8 -73 -29 -125 -32 -84 -39 -120 -17 -90 6 10 29
20 51 24 38 6 38 6 26 -18 -7 -13 -16 -26 -20 -29 -20 -14 -61 -94 -58 -113 3
-19 8 -16 38 25 18 27 37 48 41 48 14 0 15 -35 2 -60 -12 -23 -11 -25 7 -28
16 -3 19 -8 14 -25 -14 -46 -44 -77 -75 -77 -20 0 -29 -5 -29 -16 0 -8 4 -12
10 -9 6 3 10 -3 10 -14 0 -33 13 -31 40 5 32 42 44 43 37 2 -14 -75 -19 -158
-12 -175 4 -10 8 -29 8 -43 1 -20 -3 -24 -22 -22 -18 3 -22 -1 -19 -18 2 -11
7 -20 12 -20 23 4 25 -32 6 -106 -11 -44 -20 -98 -20 -121 0 -23 -5 -54 -10
-68 -7 -18 -7 -33 1 -47 10 -18 12 -17 31 22 11 22 25 39 31 37 16 -5 29 -64
19 -85 -4 -9 -7 -48 -6 -85 1 -48 -3 -70 -12 -74 -13 -5 -34 -55 -34 -82 0
-10 5 -7 13 8 16 32 37 39 37 12 0 -26 17 -28 25 -2 3 10 15 27 27 37 21 19
21 19 13 -11 -4 -16 -7 -47 -6 -68 1 -41 -13 -77 -29 -77 -6 0 -10 16 -10 35
0 47 -20 45 -21 -2 -3 -73 -1 -98 6 -115 4 -11 -1 -28 -14 -47 -25 -35 -26
-47 -5 -55 10 -4 22 1 29 11 8 10 17 15 21 11 9 -10 -23 -58 -40 -58 -8 0 -16
-14 -19 -33 -6 -43 -2 -45 18 -8 15 30 29 39 38 24 3 -5 -8 -35 -24 -68 -36
-74 -35 -96 4 -65 25 20 27 20 27 3 0 -20 -49 -73 -67 -73 -12 0 -30 -40 -43
-92 -4 -18 -11 -41 -15 -51 -5 -13 -3 -16 8 -11 26 10 29 -14 7 -56 -16 -32
-19 -45 -10 -55 8 -9 9 -29 5 -54 -5 -32 -3 -41 11 -49 17 -10 17 -13 -6 -63
-14 -30 -39 -72 -57 -95 -17 -23 -29 -44 -27 -47 3 -3 -2 -22 -11 -43 -9 -21
-18 -67 -20 -103 -2 -35 -9 -69 -14 -74 -6 -6 -11 -15 -11 -20 0 -6 12 2 26
16 21 22 29 42 33 90 1 4 8 7 17 7 10 0 14 -5 10 -15 -3 -9 -1 -38 5 -65 10
-45 8 -53 -10 -76 -16 -21 -18 -30 -10 -40 19 -23 34 -16 54 24 l19 37 6 -53
c3 -30 12 -57 20 -62 32 -20 31 -329 -1 -354 -18 -14 -39 -74 -32 -92 3 -8 11
-14 19 -14 8 0 16 -18 20 -50 6 -43 9 -48 24 -40 10 5 20 7 23 4 2 -3 15 11
27 30 20 34 40 47 40 28 0 -5 9 -19 20 -32 11 -13 20 -37 20 -57 0 -18 5 -33
10 -33 6 0 10 17 10 39 0 45 18 101 32 101 7 0 7 -17 2 -47 -4 -27 -7 -61 -6
-76 1 -16 -5 -30 -13 -34 -20 -7 -19 -23 3 -39 22 -17 32 -17 32 1 0 7 7 18
15 23 13 7 20 27 24 75 1 4 4 7 9 7 12 0 33 -56 31 -82 -4 -43 1 -78 11 -78 6
0 10 22 10 49 0 58 16 75 31 34 8 -24 16 -29 46 -31 20 -2 40 -5 44 -8 4 -2
10 5 14 16 8 26 25 26 32 0 13 -50 29 -6 25 67 l-1 23 22 -20 c17 -16 22 -35
25 -90 4 -67 22 -91 22 -29 0 18 4 28 10 24 6 -4 10 5 10 19 0 40 16 31 41
-24 12 -28 29 -50 36 -50 16 0 16 5 3 31 -14 24 4 61 25 53 11 -5 15 1 15 19
0 34 12 40 48 22 24 -12 33 -26 43 -65 14 -54 24 -62 34 -29 9 26 25 20 51
-19 26 -39 38 -21 22 31 -12 37 -6 67 13 67 6 0 13 -9 16 -20 3 -11 12 -20 19
-20 10 0 13 7 9 23 -7 25 17 53 35 42 5 -3 10 -25 11 -48 0 -36 2 -39 10 -19
12 31 26 20 40 -30 12 -45 34 -74 44 -58 3 6 -1 17 -9 26 -9 8 -16 28 -16 44
0 16 -5 41 -10 56 -12 32 4 60 20 34 5 -8 6 -18 4 -22 -6 -10 15 -75 33 -102
13 -21 15 -18 27 37 7 30 30 36 40 11 6 -15 8 -15 26 1 22 20 27 14 32 -39 5
-52 27 -43 27 11 0 108 1 124 12 145 11 21 12 21 25 3 8 -10 14 -35 14 -55 0
-42 24 -74 60 -82 14 -3 33 -9 43 -13 12 -5 17 -3 17 8 0 20 26 41 35 27 3 -5
14 -10 25 -10 12 0 21 -12 29 -37 l10 -38 -5 43 c-4 28 -2 42 5 42 7 0 10 12
9 26 -5 47 17 36 36 -18 l19 -53 9 35 c7 23 6 41 -1 52 -17 28 -13 47 15 73
31 29 44 25 45 -13 l0 -27 16 22 c22 33 31 29 44 -22 12 -48 28 -60 30 -22 1
19 2 20 6 2 8 -31 34 -65 45 -59 6 4 8 28 5 58 -3 33 0 64 9 85 8 18 14 42 14
52 0 11 7 19 15 19 8 0 17 11 20 25 3 14 7 35 10 47 2 13 11 32 18 43 13 16
17 17 31 6 9 -7 16 -19 16 -26 0 -7 7 -18 15 -25 23 -19 20 11 -6 60 -20 38
-20 42 -5 59 22 24 20 31 -6 28 -21 -2 -23 1 -20 43 5 57 9 61 32 30 l19 -25
-1 30 c0 17 1 35 2 40 5 22 -1 35 -15 35 -20 0 -19 9 5 65 11 26 17 51 14 56
-8 14 -17 89 -16 136 1 52 -15 56 -41 12 -24 -43 -43 -33 -39 21 3 31 11 49
30 66 15 13 22 24 15 24 -6 0 -15 -5 -18 -10 -4 -6 -11 -8 -16 -5 -13 8 18 65
36 65 16 0 45 38 45 59 0 8 -10 3 -26 -14 -21 -23 -28 -25 -35 -14 -8 12 -12
11 -23 -4 -8 -10 -17 -14 -20 -9 -8 13 21 69 39 76 8 3 15 10 15 16 0 6 -4 8
-10 5 -21 -13 -30 6 -17 33 8 15 12 34 10 44 -2 9 1 19 6 23 15 9 14 25 -2 25
-7 0 -18 -9 -25 -20 -7 -12 -17 -18 -22 -15 -27 17 7 95 40 95 11 0 22 10 26
23 3 12 12 29 19 37 16 20 26 60 14 60 -5 0 -9 5 -9 11 0 6 8 8 18 5 28 -8 61
26 55 57 -7 36 -23 45 -23 13 0 -23 -10 -32 -24 -23 -3 1 -17 -9 -31 -23 l-27
-25 7 45 c5 33 15 53 38 73 l32 28 -30 -3 c-25 -2 -31 1 -33 19 -3 22 -22 33
-22 13 0 -5 -7 -10 -15 -10 -20 0 -19 29 1 37 11 4 14 13 9 30 -5 20 2 32 31
59 20 19 33 38 29 42 -3 4 -12 -1 -19 -11 -18 -23 -26 -22 -21 5 3 12 18 35
34 52 29 30 36 59 31 126 -1 21 -3 22 -9 7 -6 -17 -8 -17 -20 -3 -17 20 -19
78 -3 83 6 3 12 -2 12 -10 0 -8 7 -20 15 -27 13 -11 15 -8 15 13 0 14 -7 30
-16 35 -15 8 -15 10 0 15 24 10 19 36 -8 43 -21 5 -24 11 -23 47 2 54 31 64
41 15 7 -32 8 -32 18 -10 8 16 8 29 0 47 -10 21 -8 28 10 45 18 17 20 23 10
45 -16 35 -15 65 4 110 14 36 14 38 -5 52 -26 18 -26 34 -1 101 24 63 25 73 5
66 -19 -8 -19 9 0 60 8 22 12 43 10 47 -3 4 2 12 10 19 23 19 7 32 -20 14 -29
-19 -35 -10 -29 52 2 27 7 78 10 114 3 35 9 69 13 75 19 25 18 41 -2 41 -13 0
-24 -11 -34 -33 -20 -48 -41 -43 -39 10 2 54 10 65 41 59 27 -5 35 12 10 22
-8 3 -15 14 -15 25 0 11 -5 23 -11 27 -6 3 -9 19 -5 35 3 15 1 31 -5 35 -6 3
-8 16 -5 28 4 15 -2 30 -15 44 -19 21 -19 23 -3 47 9 14 24 29 32 34 12 7 13
13 5 23 -14 17 -10 126 5 155 15 28 15 33 -2 33 -11 0 -13 9 -10 37 l6 38 -31
-33 -31 -32 0 28 c0 15 5 33 11 39 6 6 14 27 19 46 6 28 5 34 -6 30 -8 -3 -14
-11 -14 -19 0 -8 -5 -14 -11 -14 -5 0 -7 5 -4 10 3 6 1 10 -4 10 -17 0 -13 19
9 47 26 34 25 45 -4 37 -22 -5 -24 -3 -24 33 0 21 -1 47 -3 57 -3 13 6 24 26
36 29 16 30 19 30 91 0 64 4 80 28 116 36 57 34 62 -8 17 -43 -45 -61 -36 -63
31 -2 44 10 60 22 29 9 -23 29 -5 23 22 -2 13 0 24 4 24 19 0 8 20 -15 26 -21
5 -23 10 -21 54 4 62 24 104 53 108 13 2 22 10 22 21 0 19 40 61 58 61 15 0
15 9 -2 58 -10 27 -12 50 -6 69 4 15 13 45 20 65 7 24 8 44 2 54 -8 15 -12 14
-24 -11 l-15 -28 -6 24 c-3 13 -1 44 4 69 6 25 10 57 9 72 0 15 6 31 13 35 18
11 28 41 17 48 -16 10 -12 35 5 35 8 0 15 -9 15 -19 0 -11 4 -22 8 -25 4 -2 8
52 7 121 0 89 4 127 12 130 27 9 49 -93 31 -145 -4 -13 -4 -30 0 -39 7 -11 11
-4 15 27 3 24 14 50 26 61 12 11 21 29 21 40 0 16 -3 18 -19 9 -27 -14 -34 0
-25 55 7 52 19 65 28 32 6 -21 7 -21 21 -3 9 12 22 17 35 13 16 -4 20 0 20 17
0 20 40 76 54 76 2 0 -6 -19 -18 -42 -12 -24 -23 -52 -24 -63 -1 -11 -4 -36
-7 -55 -4 -29 -2 -27 13 15 10 28 23 50 28 51 5 0 17 4 28 9 13 6 21 3 28 -9
5 -9 13 -14 19 -11 5 4 12 -2 16 -12 3 -10 13 -26 22 -36 9 -11 14 -33 13 -53
-2 -26 1 -35 10 -32 7 3 14 16 15 29 0 13 1 30 2 37 2 25 20 1 36 -49 14 -41
19 -48 31 -38 8 6 14 18 14 27 0 39 65 119 92 114 4 -1 10 14 14 34 4 24 11
33 20 30 8 -3 20 -9 28 -12 8 -3 16 3 19 16 8 30 21 19 37 -30 19 -57 28 -58
23 -2 -4 44 -3 46 11 28 9 -11 16 -32 16 -48 0 -15 5 -28 10 -28 6 0 10 17 10
38 0 35 32 93 44 81 3 -3 9 -40 13 -84 4 -43 13 -80 18 -82 6 -1 17 14 26 36
15 36 15 39 -3 50 -14 9 -18 21 -16 47 4 45 19 46 40 3 18 -35 21 -33 18 13
-2 29 18 47 30 27 5 -7 6 -17 4 -21 -3 -5 7 -34 21 -65 19 -40 26 -66 22 -90
-3 -18 -2 -33 3 -33 10 0 24 19 26 35 0 6 2 16 2 23 1 6 13 12 25 12 16 0 28
9 37 28 l13 27 9 -35 c9 -33 7 -65 -8 -137 -4 -22 -2 -33 5 -33 6 0 14 18 17
40 4 22 11 43 15 46 5 3 9 21 9 40 0 23 5 34 15 34 17 0 35 -30 35 -57 0 -11
6 -28 14 -38 13 -18 15 -16 26 25 7 25 19 59 26 77 8 17 14 38 14 46 0 9 5 19
10 22 6 3 7 17 4 31 -7 29 0 30 26 6 17 -16 18 -24 10 -82 -5 -36 -10 -81 -10
-102 0 -31 3 -35 20 -31 12 3 20 14 20 26 0 11 5 37 11 58 12 37 12 38 29 17
17 -21 17 -21 24 21 3 23 18 61 32 83 24 38 27 40 37 22 16 -29 31 -35 44 -17
9 12 10 20 2 29 -11 14 -4 34 12 34 5 0 9 -7 9 -15 0 -8 6 -15 14 -15 7 0 21
-10 29 -22 16 -23 16 -23 16 13 1 21 9 44 21 57 11 12 20 32 20 45 0 14 7 30
15 37 8 7 15 21 15 31 0 10 9 23 20 29 12 6 20 21 20 36 0 28 34 63 63 64 21
0 23 36 3 59 -25 30 -37 130 -21 186 7 28 14 44 14 38 1 -21 18 -14 25 9 7 29
-11 49 -24 28 -9 -13 -11 -13 -19 -1 -12 18 -3 41 15 41 8 0 14 7 14 15 0 8 7
15 15 15 8 0 16 6 16 13 1 6 3 37 4 67 4 59 31 156 50 180 21 25 25 53 11 85
-11 25 -10 37 5 77 17 47 14 59 -8 37 -26 -26 -28 102 -3 150 5 9 12 25 16 36
l7 20 7 -20 c4 -11 10 -30 15 -42 13 -40 35 -20 35 32 0 13 7 30 15 39 8 8 15
33 15 56 0 23 4 49 9 59 8 14 4 21 -20 35 -19 11 -29 25 -29 41 0 27 16 42 23
23 7 -20 24 2 32 42 7 30 6 33 -8 22 -13 -11 -15 -6 -16 44 0 35 5 65 14 78 8
11 15 16 15 11 0 -6 5 -3 10 5 5 8 7 29 4 46 -3 18 -1 35 5 38 15 10 14 26 -3
26 -7 0 -21 -10 -29 -22 -9 -13 -32 -40 -51 -61 -20 -21 -36 -43 -36 -49 0 -7
-5 -6 -15 2 -12 10 -15 9 -15 -8 0 -16 -28 -53 -31 -41 -11 41 -5 86 16 118
31 45 33 66 5 51 -16 -8 -20 -8 -20 4 0 8 4 17 10 21 5 3 8 22 6 43 -3 31 2
43 33 76 42 45 16 35 -48 -19 -44 -36 -65 -43 -76 -24 -5 7 -14 3 -27 -11 -16
-17 -22 -19 -29 -9 -6 11 -12 10 -27 -5 -18 -16 -21 -16 -29 -1 -8 14 -11 14
-28 -5 -21 -23 -35 -26 -35 -6 0 21 -36 8 -55 -20 -8 -13 -20 -24 -26 -24 -6
0 -20 -11 -31 -25 -37 -47 -52 -22 -20 34 9 17 24 33 32 36 8 3 21 14 28 25
10 16 10 20 -2 20 -7 0 -19 -7 -26 -15 -7 -8 -25 -15 -40 -15 -16 0 -42 -11
-58 -25 -17 -14 -34 -25 -40 -25 -5 0 -15 -7 -22 -15 -20 -24 -30 -18 -30 18
-1 29 -2 30 -14 15 -7 -10 -19 -18 -25 -18 -22 0 -2 82 27 113 25 26 25 27 5
27 -12 0 -34 -11 -50 -23 -15 -13 -56 -37 -89 -53 -37 -17 -68 -40 -77 -56
-23 -40 -47 -37 -47 7 0 43 -10 44 -32 4 -19 -33 -46 -32 -28 1 14 27 12 32
-10 25 -16 -5 -20 -2 -20 14 0 28 -14 26 -34 -4 -23 -36 -39 -32 -30 7 6 30 5
31 -10 19 -9 -8 -14 -21 -11 -28 7 -19 -12 -53 -30 -53 -17 0 -20 26 -5 35 22
13 9 24 -16 13 -19 -9 -27 -9 -33 0 -5 8 -16 3 -36 -18 -16 -16 -34 -30 -39
-30 -6 0 -24 -16 -39 -35 -36 -45 -61 -47 -55 -5 3 17 1 30 -4 30 -12 0 -10
34 3 47 8 8 8 17 1 29 -9 15 -12 14 -27 -16 l-17 -34 -13 30 -13 29 -16 -37
c-15 -35 -62 -88 -78 -88 -12 0 -10 38 2 45 6 3 10 16 10 28 0 19 -6 15 -39
-23 -38 -43 -63 -52 -42 -13 6 10 18 34 27 53 17 35 17 35 -3 18 -24 -22 -31
-22 -35 -2 -2 14 -9 12 -36 -11 -36 -30 -55 -23 -45 16 3 10 0 19 -6 19 -6 0
-11 -3 -12 -7 0 -5 -2 -29 -4 -56 -5 -55 -10 -67 -32 -67 -12 0 -14 7 -9 33
l6 32 -24 -30 c-20 -25 -26 -27 -39 -17 -13 11 -17 10 -27 -7 -6 -12 -17 -21
-24 -21 -8 0 -16 -9 -19 -21 -3 -12 -11 -19 -18 -17 -16 5 -12 104 7 182 5 21
4 27 -5 22 -6 -4 -11 -13 -11 -20 0 -7 -9 -21 -20 -31 -11 -10 -20 -28 -20
-39 0 -25 -26 -66 -42 -66 -6 0 -8 10 -5 23 11 43 25 92 32 112 5 13 -5 7 -32
-18 -47 -44 -60 -37 -40 22 9 25 11 43 5 49 -7 7 -5 29 5 62 14 46 14 51 0 46
-27 -11 -31 3 -17 50 12 42 12 45 -2 33 -21 -17 -37 7 -23 34 8 14 7 22 -6 31
-10 7 -14 18 -9 29 9 25 17 21 33 -14 17 -38 27 -31 13 9 -8 23 -7 35 4 51 13
19 13 21 0 21 -22 0 -36 32 -24 54 6 11 6 22 1 27 -5 5 -7 24 -5 42 3 29 7 33
26 30 19 -4 21 0 21 44 0 26 4 56 9 66 7 14 4 17 -15 17 -21 0 -24 5 -26 39
-2 29 3 43 22 61 14 13 25 26 25 30 0 9 -59 -1 -66 -11 -3 -5 -9 -9 -15 -9
-17 0 -9 22 14 41 20 15 24 26 22 71 -1 29 2 59 8 66 8 10 7 16 -6 23 -21 12
-22 27 -1 50 13 14 13 24 4 59 -13 47 0 75 32 67 11 -3 22 2 29 14 10 20 4 21
-63 2 -25 -6 -22 6 7 29 17 14 26 33 31 67 8 63 18 79 37 62 10 -7 18 -8 21
-2 4 5 2 12 -4 16 -18 11 -11 47 11 52 16 5 19 10 13 27 -10 29 -7 117 5 149
12 30 41 37 41 10 0 -38 12 0 15 48 3 38 0 58 -11 71 -17 18 -11 38 12 38 8 0
14 5 14 10 0 20 21 9 32 -17 l12 -28 3 26 c3 20 9 26 22 22 21 -5 17 -53 -5
-53 -21 0 -24 -15 -11 -49 13 -37 32 -42 23 -7 -4 18 -1 29 15 40 21 14 21 16
7 80 -15 66 -9 107 12 76 5 -8 10 -23 10 -32 0 -26 18 -22 22 5 2 16 9 22 26
21 12 0 22 5 22 13 0 8 7 16 16 20 13 5 15 18 12 66 -2 42 1 61 10 64 7 3 12
-4 12 -15 0 -11 9 -31 20 -45 11 -14 20 -32 20 -40 0 -8 6 -20 14 -26 11 -9
15 -6 20 14 8 31 24 32 36 3 9 -23 9 -23 10 2 1 42 12 52 43 37 15 -6 27 -20
27 -29 0 -28 17 -21 29 12 7 20 17 30 30 30 16 0 21 6 21 29 0 16 7 34 15 41
12 10 15 9 15 -5 0 -15 3 -15 15 -5 12 10 19 10 27 2 19 -19 28 -14 28 13 0
20 5 25 25 25 19 0 26 -7 31 -27 12 -49 19 -49 24 0 3 26 10 48 15 48 6 0 16
-28 23 -62 6 -35 15 -65 18 -68 4 -3 4 8 1 25 -3 18 -3 35 1 38 4 4 7 34 7 67
0 42 4 62 15 69 19 12 18 13 30 -50 15 -78 30 -87 30 -18 0 54 11 80 25 58 9
-15 25 -2 25 21 0 41 36 7 45 -45 4 -20 13 -36 20 -36 8 0 19 -16 26 -35 13
-36 29 -47 29 -20 0 8 9 15 20 15 11 0 20 5 20 11 0 6 9 9 20 6 14 -4 20 0 20
11 0 10 9 28 20 42 20 27 22 25 34 -33 8 -35 26 -26 26 14 0 18 6 32 16 36 20
8 36 -15 31 -45 -3 -12 -1 -25 3 -27 4 -3 10 13 13 36 6 49 24 74 42 59 7 -6
19 -8 28 -4 8 3 18 1 22 -5 12 -21 51 -12 64 15 6 14 9 30 6 35 -4 5 0 9 8 9
17 0 27 -21 27 -57 0 -22 2 -24 16 -12 13 10 17 10 25 -2 5 -8 7 -20 4 -27
-11 -30 8 -32 26 -2 24 39 42 35 50 -11 5 -29 7 -31 13 -14 28 73 26 72 42 50
9 -11 12 -31 9 -47 -3 -16 -8 -41 -11 -58 -3 -17 -1 -30 4 -30 13 0 21 34 23
90 1 30 3 38 7 24 7 -21 56 -84 66 -84 12 0 6 58 -6 62 -14 5 -12 87 3 102 19
20 33 -11 22 -49 -10 -32 -9 -35 8 -35 10 0 19 -5 19 -11 0 -26 28 13 33 46 5
33 64 105 87 105 5 0 10 7 10 16 0 12 5 11 20 -7 l21 -24 -2 45 c-3 76 -1 83
21 77 15 -4 20 0 20 13 0 24 -16 34 -24 15 -8 -22 -26 -18 -26 5 0 11 6 20 14
20 18 0 26 22 26 70 0 22 5 40 12 42 15 5 12 147 -3 162 -18 19 -8 47 32 91
23 25 39 48 35 52 -3 3 1 15 11 25 9 10 11 18 5 18 -7 0 -17 -9 -24 -20 -26
-42 -51 -13 -28 31 8 15 7 19 -5 19 -15 0 -21 31 -7 44 4 4 7 20 7 35 0 23 -4
27 -22 23 -19 -4 -23 0 -23 21 0 13 6 30 14 36 10 9 14 40 15 118 0 58 4 115
7 127 7 21 6 21 -15 2 -21 -19 -21 -19 -21 3 0 14 15 32 45 53 37 26 43 36 39
55 -4 13 -1 30 5 37 17 21 -9 27 -31 8 -16 -14 -18 -13 -18 5 0 11 7 26 15 33
20 16 19 38 -1 36 -12 -1 -17 9 -19 34 -3 29 3 40 36 70 37 34 50 60 29 60 -5
0 -15 -9 -22 -21 -12 -19 -76 -54 -85 -46 -2 2 6 12 17 22 24 21 26 55 5 55
-20 0 -46 59 -36 80 9 19 7 92 -3 108 -8 13 17 95 40 130 19 29 8 45 -12 18
-8 -11 -14 -15 -14 -9 0 7 5 15 10 18 6 3 10 22 10 41 0 32 -2 34 -27 28 -25
-7 -26 -6 -20 30 4 27 2 36 -9 36 -8 0 -14 -8 -14 -17 0 -13 -3 -14 -12 -5 -9
9 -15 5 -24 -18 -7 -17 -20 -30 -30 -30 -11 0 -14 5 -9 18 21 49 19 55 -10 48
-26 -7 -27 -5 -21 19 7 28 -5 33 -24 10 -18 -22 -30 -18 -30 10 0 30 -3 31
-38 6 -15 -11 -44 -23 -66 -27 -38 -7 -39 -6 -34 22 3 16 9 37 13 47 10 23
-10 22 -37 -3 -15 -14 -36 -20 -64 -20 -32 0 -49 -6 -65 -22 -15 -16 -23 -19
-26 -10 -3 8 -14 5 -35 -13 -33 -28 -49 -26 -40 7 l5 22 -30 -22 c-17 -12 -36
-22 -41 -22 -5 0 -33 -16 -61 -35 -55 -38 -71 -43 -71 -21 0 17 56 66 75 66
16 0 84 42 85 52 0 14 -155 -71 -168 -91 -16 -27 -42 -28 -35 -1 6 24 -21 38
-41 21 -7 -6 -15 -8 -19 -5 -9 10 4 34 19 34 8 0 14 4 14 10 0 5 -6 7 -14 4
-20 -8 -29 12 -16 36 6 11 8 20 5 20 -14 0 -51 -25 -64 -42 -7 -11 -24 -23
-37 -28 -14 -6 -24 -18 -24 -28 0 -10 -9 -27 -20 -37 -19 -18 -20 -17 -20 6 0
14 5 30 11 36 7 7 7 13 1 17 -6 3 -13 2 -17 -4 -10 -16 -28 -12 -21 5 3 9 0
15 -10 15 -20 0 -87 -35 -103 -54 -8 -9 -24 -16 -38 -16 -21 0 -24 4 -22 28 1
15 -1 35 -5 44 -4 9 -3 25 3 37 17 30 13 40 -11 34 -17 -4 -19 -2 -9 5 11 8 8
10 -13 9 -15 -1 -32 -4 -40 -7z m14 -33 c0 -18 -34 -49 -43 -40 -11 10 -8 20
9 37 19 20 34 21 34 3z m30 -45 c0 -13 -12 -22 -22 -16 -10 6 -1 24 13 24 5 0
9 -4 9 -8z m890 -5 c0 -23 -26 -49 -44 -46 -17 4 -16 6 4 32 23 29 40 35 40
14z m-540 -57 c0 -5 -5 -10 -11 -10 -5 0 -7 5 -4 10 3 6 8 10 11 10 2 0 4 -4
4 -10z m742 -12 c-7 -7 -12 -8 -12 -2 0 14 12 26 19 19 2 -3 -1 -11 -7 -17z
m-1381 -39 c-13 -11 -27 -17 -30 -13 -3 3 5 14 18 25 13 11 27 17 30 13 3 -3
-5 -14 -18 -25z m-245 -36 c-10 -10 -19 5 -10 18 6 11 8 11 12 0 2 -7 1 -15
-2 -18z m1012 15 c-3 -7 -12 -14 -21 -16 -12 -2 -15 1 -11 12 7 19 38 22 32 4z
m-1396 -70 c-7 -7 -12 -8 -12 -2 0 14 12 26 19 19 2 -3 -1 -11 -7 -17z m-263
-34 c-7 -9 -18 -25 -24 -37 -11 -22 -35 -35 -35 -19 0 8 12 25 51 70 6 7 13
11 16 8 3 -3 0 -13 -8 -22z m353 4 c-7 -7 -12 -8 -12 -2 0 14 12 26 19 19 2
-3 -1 -11 -7 -17z m-152 -11 c0 -14 -20 -37 -32 -37 -12 0 -10 24 4 38 16 16
28 15 28 -1z m-500 -176 c0 -12 -20 -25 -27 -18 -7 7 6 27 18 27 5 0 9 -4 9
-9z m2800 -277 c0 -16 -16 -19 -25 -4 -8 13 4 32 16 25 5 -4 9 -13 9 -21z m40
-99 c0 -8 -9 -19 -20 -25 -15 -8 -20 -8 -20 3 0 14 19 37 32 37 4 0 8 -7 8
-15z m-3536 -238 c-3 -9 -12 -17 -20 -17 -17 0 -17 5 -3 32 13 24 33 10 23
-15z m-44 -56 c-7 -17 -16 -31 -21 -31 -17 0 -19 21 -4 51 22 42 44 25 25 -20z
m3460 -160 c0 -6 -4 -13 -10 -16 -5 -3 -10 1 -10 9 0 9 5 16 10 16 6 0 10 -4
10 -9z m-3720 -172 c0 -21 -50 -79 -69 -79 -19 0 -12 20 21 61 35 44 48 49 48
18z m-170 -307 c0 -34 -42 -112 -61 -112 -17 0 -20 42 -5 65 9 13 16 30 16 37
0 20 30 59 41 53 5 -4 9 -23 9 -43z m-60 -182 c0 -19 -11 -26 -23 -14 -8 8 3
34 14 34 5 0 9 -9 9 -20z m-30 -46 c0 -8 -5 -12 -10 -9 -6 4 -8 11 -5 16 9 14
15 11 15 -7z m3214 -13 c3 -5 -1 -14 -9 -21 -13 -10 -15 -9 -15 9 0 21 14 28
24 12z m-3154 -25 c0 -16 -18 -31 -27 -22 -8 8 5 36 17 36 5 0 10 -6 10 -14z
m3510 -21 c-16 -31 -30 -32 -30 -4 0 15 5 19 15 15 10 -3 15 1 15 11 0 9 3 13
7 10 3 -4 0 -18 -7 -32z m120 1 c0 -8 -4 -18 -10 -21 -5 -3 -10 3 -10 14 0 12
5 21 10 21 6 0 10 -6 10 -14z m-509 -66 c-3 -9 -8 -3 -13 15 -4 17 -5 37 -1
45 8 19 22 -38 14 -60z m-3164 28 c-3 -8 -6 -5 -6 6 -1 11 2 17 5 13 3 -3 4
-12 1 -19z m2743 -38 c0 -25 -18 -36 -26 -16 -8 21 3 49 16 41 5 -3 10 -15 10
-25z m-310 16 c0 -3 -4 -8 -10 -11 -5 -3 -10 -1 -10 4 0 6 5 11 10 11 6 0 10
-2 10 -4z m-2433 -31 c-4 -8 -11 -15 -17 -15 -7 0 -7 6 0 21 13 23 26 19 17
-6z m2549 -69 c-3 -14 -11 -26 -16 -26 -11 0 -14 53 -3 64 13 12 26 -13 19
-38z m-171 14 c3 -5 1 -10 -4 -10 -6 0 -11 5 -11 10 0 6 2 10 4 10 3 0 8 -4
11 -10z m35 -47 c0 -5 -5 -15 -10 -23 -7 -11 -12 -12 -21 -3 -6 6 -8 16 -5 22
8 12 36 15 36 4z m-264 -199 c-3 -8 -10 -13 -16 -9 -6 4 -5 13 3 26 13 21 23
8 13 -17z m-116 -99 c0 -8 -9 -15 -20 -15 -22 0 -27 15 -7 23 21 9 27 7 27 -8z
m-2100 -175 c0 -5 -5 -10 -11 -10 -5 0 -7 5 -4 10 3 6 8 10 11 10 2 0 4 -4 4
-10z m-70 -234 c0 -3 -4 -8 -10 -11 -5 -3 -10 -1 -10 4 0 6 5 11 10 11 6 0 10
-2 10 -4z m-57 -98 c3 -38 -1 -71 -15 -113 -29 -89 -51 -134 -56 -113 -2 9 2
26 7 37 6 11 11 35 11 54 0 19 7 40 15 47 17 14 20 40 5 40 -13 0 -13 29 1 69
16 45 26 38 32 -21z m27 -172 c0 -8 -4 -18 -10 -21 -5 -3 -10 3 -10 14 0 12 5
21 10 21 6 0 10 -6 10 -14z m2040 -141 c0 -28 -17 -42 -33 -26 -7 7 -7 18 1
36 14 30 32 24 32 -10z m-2035 -64 c-9 -16 -25 -3 -18 15 4 10 9 12 15 6 6 -6
7 -15 3 -21z m2030 -106 c0 -10 -6 -20 -12 -22 -8 -3 -13 5 -13 22 0 17 5 25
13 23 6 -3 12 -13 12 -23z m-2035 -408 c0 -7 -7 -22 -15 -33 -14 -18 -14 -18
-15 7 0 14 3 29 7 32 11 11 23 8 23 -6z m2000 -171 c0 -3 -4 -8 -10 -11 -5 -3
-10 -1 -10 4 0 6 5 11 10 11 6 0 10 -2 10 -4z m-2201 -142 c-20 -54 -44 -59
-34 -8 8 47 24 69 38 55 7 -7 5 -23 -4 -47z m2221 6 c0 -5 -5 -10 -11 -10 -5
0 -7 5 -4 10 3 6 8 10 11 10 2 0 4 -4 4 -10z m-2284 -51 c-8 -49 -33 -86 -63
-92 -30 -6 -29 12 1 48 13 15 27 41 30 56 3 18 12 29 22 29 14 0 15 -7 10 -41z
m3543 -55 c-32 -34 -37 -21 -8 21 17 25 25 30 27 19 2 -9 -6 -27 -19 -40z
m431 28 c0 -13 -12 -22 -22 -16 -10 6 -1 24 13 24 5 0 9 -4 9 -8z m-810 -12
c0 -5 -5 -10 -11 -10 -5 0 -7 5 -4 10 3 6 8 10 11 10 2 0 4 -4 4 -10z m846 -6
c-3 -9 -6 -18 -6 -20 0 -3 -4 -3 -10 1 -11 7 -2 35 12 35 6 0 7 -7 4 -16z
m-889 -31 c-15 -16 -17 -16 -17 -1 0 9 6 18 13 21 20 7 22 -2 4 -20z m93 17
c0 -5 -5 -10 -11 -10 -5 0 -7 5 -4 10 3 6 8 10 11 10 2 0 4 -4 4 -10z m-248
-32 c-7 -7 -12 -8 -12 -2 0 14 12 26 19 19 2 -3 -1 -11 -7 -17z m758 17 c0
-18 -33 -65 -45 -65 -21 0 -18 20 7 47 20 22 38 30 38 18z m-1349 -48 c-16
-16 -26 0 -10 19 9 11 15 12 17 4 2 -6 -1 -17 -7 -23z m439 19 c0 -3 -4 -8
-10 -11 -5 -3 -10 -1 -10 4 0 6 5 11 10 11 6 0 10 -2 10 -4z m-120 -15 c0 -5
-7 -14 -15 -21 -12 -10 -15 -10 -15 2 0 8 3 18 7 21 9 10 23 9 23 -2z m408
-13 c-3 -7 -12 -14 -21 -16 -12 -2 -15 1 -11 12 7 19 38 22 32 4z m-4201 -23
c-4 -8 -11 -15 -17 -15 -14 0 -13 27 3 33 16 6 21 1 14 -18z m153 -29 c0 -3
-4 -8 -10 -11 -5 -3 -10 -1 -10 4 0 6 5 11 10 11 6 0 10 -2 10 -4z m338 -8
c-5 -14 -50 -40 -57 -33 -5 5 41 44 52 45 5 0 7 -6 5 -12z m274 -10 c-7 -7
-12 -8 -12 -2 0 14 12 26 19 19 2 -3 -1 -11 -7 -17z m-932 -103 c-27 -39 -50
-57 -50 -39 0 11 62 84 71 84 6 0 -4 -20 -21 -45z m-190 -40 c0 -8 -4 -15 -10
-15 -5 0 -10 7 -10 15 0 8 5 15 10 15 6 0 10 -7 10 -15z m71 -82 c-9 -15 -10
-13 -11 13 0 17 3 34 8 38 11 12 14 -32 3 -51z m89 22 c-7 -9 -15 -13 -17 -11
-7 7 7 26 19 26 6 0 6 -6 -2 -15z m5604 -87 c-2 -31 -10 -58 -20 -67 -15 -15
-16 -11 -9 49 7 69 12 83 25 75 4 -3 6 -28 4 -57z m-5674 -1 c0 -24 -35 -108
-50 -122 -20 -18 -20 -18 -20 8 0 32 17 77 37 99 14 16 33 24 33 15z m-104
-194 c-10 -10 -19 5 -10 18 6 11 8 11 12 0 2 -7 1 -15 -2 -18z m71 -83 c-3
-28 -10 -56 -14 -63 -4 -6 -8 -18 -9 -25 -3 -20 -14 -28 -15 -11 0 8 -4 36 -8
63 -7 44 -6 52 13 68 33 27 39 22 33 -32z m5639 9 c3 -6 -5 -23 -19 -37 -23
-23 -27 -24 -33 -8 -4 10 1 25 11 36 21 23 31 25 41 9z m-26 -93 c0 -3 -4 -8
-10 -11 -5 -3 -10 -1 -10 4 0 6 5 11 10 11 6 0 10 -2 10 -4z m25 -67 c0 -8
-10 -15 -23 -17 -21 -3 -22 -1 -12 18 12 23 35 22 35 -1z m-35 -48 c0 -12 -20
-25 -27 -18 -7 7 6 27 18 27 5 0 9 -4 9 -9z m-4 -258 c-10 -10 -19 5 -10 18 6
11 8 11 12 0 2 -7 1 -15 -2 -18z m-89 -80 c-3 -3 -11 -2 -17 2 -8 5 -7 11 2
22 12 15 13 14 16 -1 2 -10 1 -20 -1 -23z m-47 -133 c0 -5 -4 -10 -10 -10 -5
0 -10 5 -10 10 0 6 5 10 10 10 6 0 10 -4 10 -10z m60 -60 c0 -5 -4 -10 -10
-10 -5 0 -10 5 -10 10 0 6 5 10 10 10 6 0 10 -4 10 -10z m15 -81 c8 -45 5 -52
-18 -44 -15 6 -27 51 -19 73 9 27 31 10 37 -29z m-5569 -75 c-4 -9 -9 -15 -11
-12 -3 3 -3 13 1 22 4 9 9 15 11 12 3 -3 3 -13 -1 -22z m5504 7 c0 -23 -16
-36 -25 -21 -9 14 1 40 15 40 5 0 10 -9 10 -19z m-5400 -195 c0 -16 -18 -31
-27 -22 -8 8 5 36 17 36 5 0 10 -6 10 -14z m4227 -28 c-3 -8 -6 -5 -6 6 -1 11
2 17 5 13 3 -3 4 -12 1 -19z m943 14 c0 -13 -12 -22 -22 -16 -10 6 -1 24 13
24 5 0 9 -4 9 -8z m-5143 -24 c-3 -8 -6 -5 -6 6 -1 11 2 17 5 13 3 -3 4 -12 1
-19z m4235 -59 l-9 -24 -7 23 c-8 26 2 48 15 35 6 -6 6 -19 1 -34z m-4132 13
c0 -5 -7 -17 -15 -28 -14 -19 -14 -19 -15 2 0 11 3 24 7 27 9 10 23 9 23 -1z
m4830 -7 c9 -11 9 -23 -2 -57 -8 -23 -20 -44 -26 -46 -19 -6 -26 27 -12 53 7
13 9 28 6 34 -8 12 1 31 13 31 5 0 14 -7 21 -15z m-756 -28 c4 -17 12 -23 28
-23 17 1 24 -5 26 -25 4 -36 -15 -80 -38 -86 -11 -3 -20 -10 -20 -17 0 -6 -7
-3 -15 7 -19 26 -20 167 -1 167 8 0 16 -10 20 -23z m-334 -17 c0 -11 -4 -20
-10 -20 -5 0 -10 9 -10 20 0 11 5 20 10 20 6 0 10 -9 10 -20z m881 -17 c7 -19
7 -35 0 -50 -16 -34 -33 -28 -30 10 2 18 0 37 -4 43 -7 12 1 24 15 24 5 0 13
-12 19 -27z m-4301 -2 c0 -22 -16 -36 -24 -22 -8 12 3 41 15 41 5 0 9 -9 9
-19z m420 0 c0 -23 -24 -71 -31 -64 -11 11 8 73 22 73 5 0 9 -4 9 -9z m-230
-25 c0 -8 -4 -17 -9 -21 -12 -7 -24 12 -16 25 9 15 25 12 25 -4z m3173 -11 c8
-19 -13 -31 -23 -14 -9 14 -4 29 10 29 4 0 10 -7 13 -15z m284 -7 c-3 -8 -6
-5 -6 6 -1 11 2 17 5 13 3 -3 4 -12 1 -19z m-3002 -13 c0 -10 -6 -20 -12 -22
-8 -3 -13 5 -13 22 0 17 5 25 13 23 6 -3 12 -13 12 -23z m3762 3 c-3 -8 -6 -5
-6 6 -1 11 2 17 5 13 3 -3 4 -12 1 -19z m40 0 c-3 -8 -6 -5 -6 6 -1 11 2 17 5
13 3 -3 4 -12 1 -19z m-3702 -33 c0 -10 -6 -20 -12 -22 -8 -3 -13 5 -13 22 0
17 5 25 13 23 6 -3 12 -13 12 -23z m299 -61 c3 -9 3 -20 0 -26 -4 -6 -1 -14 6
-18 14 -9 7 -40 -10 -40 -5 0 -10 7 -10 15 0 8 -4 15 -10 15 -11 0 -14 53 -3
63 11 11 20 8 27 -9z m2251 -41 c6 -40 5 -43 -21 -53 -31 -12 -48 -3 -21 11
12 7 17 23 17 56 0 56 15 47 25 -14z m-2215 22 c0 -8 -4 -15 -10 -15 -5 0 -10
7 -10 15 0 8 5 15 10 15 6 0 10 -7 10 -15z m98 -14 c4 -22 -22 -71 -36 -71 -5
0 -13 12 -18 28 -8 22 -7 31 10 48 26 26 40 25 44 -5z m-78 -41 c0 -5 -4 -10
-10 -10 -5 0 -10 5 -10 10 0 6 5 10 10 10 6 0 10 -4 10 -10z m2130 -65 c0 -8
-4 -15 -10 -15 -5 0 -10 7 -10 15 0 8 5 15 10 15 6 0 10 -7 10 -15z m-2065 -4
c3 -5 -2 -16 -10 -25 -8 -8 -14 -20 -13 -27 2 -6 -3 -14 -9 -16 -15 -6 -18 23
-3 32 6 3 10 15 10 26 0 20 15 26 25 10z m91 -156 c-4 -14 -11 -25 -16 -25
-13 0 -13 16 1 42 14 26 23 16 15 -17z m-23 -151 c9 -10 -4 -34 -19 -34 -8 0
-14 6 -14 13 0 22 19 35 33 21z m1987 -28 c0 -3 -4 -8 -10 -11 -5 -3 -10 -1
-10 4 0 6 5 11 10 11 6 0 10 -2 10 -4z m36 -112 c7 -26 -7 -44 -33 -44 -14 0
-16 13 -7 48 8 30 32 28 40 -4z m-2117 -26 c-8 -14 -14 -18 -17 -10 -4 13 17
46 25 38 3 -2 -1 -15 -8 -28z m98 -290 c-3 -7 -5 -2 -5 12 0 14 2 19 5 13 2
-7 2 -19 0 -25z m-52 -148 c-3 -5 -11 -10 -16 -10 -6 0 -7 5 -4 10 3 6 11 10
16 10 6 0 7 -4 4 -10z m-14 -284 c-10 -52 -31 -86 -31 -48 0 11 4 31 9 44 5
13 12 32 15 42 12 35 16 10 7 -38z m39 -126 c0 -5 -5 -10 -11 -10 -5 0 -7 5
-4 10 3 6 8 10 11 10 2 0 4 -4 4 -10z m-20 -119 c0 -6 -4 -13 -10 -16 -5 -3
-10 1 -10 9 0 9 5 16 10 16 6 0 10 -4 10 -9z m1980 -105 c0 -20 -26 -40 -35
-26 -10 16 2 40 20 40 8 0 15 -6 15 -14z m-10 -60 c0 -16 -18 -31 -27 -22 -8
8 5 36 17 36 5 0 10 -6 10 -14z m-1930 -20 c0 -16 -18 -31 -27 -22 -8 8 5 36
17 36 5 0 10 -6 10 -14z m1936 -213 c4 -21 7 -45 5 -53 -1 -8 -3 -26 -4 -40
-3 -43 -22 -23 -28 30 -4 28 -10 54 -13 57 -7 7 12 43 23 43 5 0 12 -17 17
-37z m4 -222 c0 -9 -52 -51 -64 -51 -13 0 -5 20 16 40 23 21 48 27 48 11z m40
-19 c0 -11 -9 -27 -20 -37 -19 -18 -20 -17 -20 6 0 25 16 49 32 49 4 0 8 -8 8
-18z m-45 -131 c-3 -6 -11 -11 -17 -11 -6 0 -6 6 2 15 14 17 26 13 15 -4z
m-1955 -141 c-6 -11 -15 -20 -20 -20 -14 0 -12 6 6 24 21 22 27 20 14 -4z m90
-4 c0 -8 -9 -24 -19 -37 -15 -19 -22 -21 -32 -12 -9 9 -8 17 5 37 18 28 46 35
46 12z m-100 -70 c0 -15 -18 -31 -26 -23 -7 7 7 37 17 37 5 0 9 -6 9 -14z m70
-85 c0 -6 -4 -13 -10 -16 -5 -3 -10 1 -10 9 0 9 5 16 10 16 6 0 10 -4 10 -9z
m1880 -57 c-7 -7 -16 -14 -21 -14 -15 0 -10 32 9 53 17 19 17 19 20 -2 2 -12
-2 -29 -8 -37z m-1870 -96 c-1 -17 -28 -53 -35 -46 -8 8 13 58 25 58 5 0 10
-6 10 -12z m1940 -22 c0 -15 -14 -35 -21 -30 -15 9 -10 34 6 34 8 0 15 -2 15
-4z m-1920 -56 c-6 -12 -14 -19 -17 -17 -2 3 1 15 7 27 6 12 14 19 17 17 2 -3
-1 -15 -7 -27z m1832 -315 c-13 -37 -24 -51 -40 -53 -22 -3 -30 12 -12 23 6 3
10 15 10 26 0 10 5 19 10 19 6 0 15 12 21 27 6 16 13 23 19 17 6 -6 3 -28 -8
-59z m26 -62 c-4 -22 -22 -20 -26 1 -2 10 3 16 13 16 10 0 15 -7 13 -17z
m-101 -85 c-3 -8 -6 -5 -6 6 -1 11 2 17 5 13 3 -3 4 -12 1 -19z m-1847 -283
c-7 -9 -15 -13 -18 -10 -3 2 1 11 8 20 7 9 15 13 18 10 3 -2 -1 -11 -8 -20z
m-10 -349 c0 -8 -4 -18 -10 -21 -5 -3 -10 3 -10 14 0 12 5 21 10 21 6 0 10 -6
10 -14z m18 -58 c16 -16 15 -36 -3 -54 -8 -9 -15 -24 -15 -35 0 -31 -49 -119
-65 -119 -13 0 -15 11 -11 58 5 71 13 92 36 92 13 0 17 5 13 20 -5 19 11 50
26 50 4 0 12 -5 19 -12z m-88 -47 c0 -12 -20 -25 -27 -18 -7 7 6 27 18 27 5 0
9 -4 9 -9z m-34 -98 l-15 -28 -1 26 c0 14 6 31 12 37 19 19 21 -3 4 -35z
m2020 -220 c-10 -10 -19 5 -10 18 6 11 8 11 12 0 2 -7 1 -15 -2 -18z m45 -6
c-8 -8 -11 -7 -11 4 0 20 13 34 18 19 3 -7 -1 -17 -7 -23z m-65 -73 c-7 -18
-26 -18 -26 0 0 8 5 27 12 43 l12 28 4 -28 c2 -16 1 -35 -2 -43z m-36 8 c0
-13 -12 -22 -22 -16 -10 6 -1 24 13 24 5 0 9 -4 9 -8z m-1760 -307 c0 -13 -8
-28 -17 -34 -14 -7 -15 -12 -4 -25 10 -12 10 -19 -3 -38 -9 -12 -16 -30 -16
-40 0 -10 -4 -18 -9 -18 -4 0 -7 19 -4 43 2 23 4 50 4 60 0 9 4 17 10 17 5 0
9 11 9 23 0 13 3 27 7 30 13 14 23 6 23 -18z m10 -134 c0 -12 -20 -25 -27 -18
-7 7 6 27 18 27 5 0 9 -4 9 -9z m-42 -43 c-3 -7 -12 -14 -21 -16 -12 -2 -15 1
-11 12 7 19 38 22 32 4z m1725 -39 c-3 -10 -9 -16 -14 -13 -11 6 -12 38 -2 47
10 11 21 -13 16 -34z m-1143 -48 c0 -11 5 -21 12 -23 15 -5 -1 -84 -17 -81
-13 2 -30 86 -22 107 9 22 27 20 27 -3z m437 -33 c-3 -8 -6 -5 -6 6 -1 11 2
17 5 13 3 -3 4 -12 1 -19z m87 -20 c8 -33 8 -33 -18 -34 -22 -2 -23 0 -14 27
12 35 24 37 32 7z m-724 -14 c0 -16 -16 -19 -25 -4 -8 13 4 32 16 25 5 -4 9
-13 9 -21z m940 -45 c0 -11 -4 -17 -10 -14 -5 3 -10 13 -10 21 0 8 5 14 10 14
6 0 10 -9 10 -21z m-560 -5 c0 -8 -5 -12 -10 -9 -6 4 -8 11 -5 16 9 14 15 11
15 -7z"/>
<path d="M6806 11994 c-4 -10 -1 -14 6 -12 15 5 23 28 10 28 -5 0 -13 -7 -16
-16z"/>
<path d="M6479 11908 c-12 -23 -12 -23 10 -4 23 21 26 26 11 26 -5 0 -15 -10
-21 -22z"/>
<path d="M5707 11219 c-9 -6 -17 -18 -17 -27 0 -14 4 -13 22 6 24 24 22 36 -5
21z"/>
<path d="M5430 10880 c0 -5 5 -10 10 -10 6 0 10 5 10 10 0 6 -4 10 -10 10 -5
0 -10 -4 -10 -10z"/>
<path d="M9165 10070 c4 -14 12 -29 17 -35 7 -7 8 -2 3 15 -4 14 -12 30 -17
35 -7 7 -8 2 -3 -15z"/>
<path d="M5046 9948 c-4 -24 -3 -45 4 -52 7 -7 10 6 10 42 0 29 -2 52 -4 52
-2 0 -6 -19 -10 -42z"/>
<path d="M8247 9870 c-4 -14 -6 -36 -6 -50 1 -22 2 -20 10 8 6 19 9 41 7 50
-3 12 -6 10 -11 -8z"/>
<path d="M5061 9863 c0 -10 4 -27 9 -38 7 -17 9 -15 9 12 1 17 -3 35 -9 38 -5
3 -10 -2 -9 -12z"/>
<path d="M8930 9861 c0 -12 5 -21 10 -21 6 0 10 6 10 14 0 8 -4 18 -10 21 -5
3 -10 -3 -10 -14z"/>
<path d="M7824 9789 c-3 -6 -1 -16 5 -22 8 -8 11 -5 11 11 0 24 -5 28 -16 11z"/>
<path d="M7516 9757 c3 -10 9 -15 12 -12 3 3 0 11 -7 18 -10 9 -11 8 -5 -6z"/>
<path d="M4930 9418 c0 -19 2 -20 10 -8 13 19 13 30 0 30 -5 0 -10 -10 -10
-22z"/>
<path d="M7100 8634 c0 -8 5 -12 10 -9 6 3 10 10 10 16 0 5 -4 9 -10 9 -5 0
-10 -7 -10 -16z"/>
<path d="M4876 8198 c-32 -54 -58 -117 -54 -129 2 -5 22 31 45 81 23 49 40 90
38 90 -2 0 -15 -19 -29 -42z"/>
<path d="M7145 8080 c-3 -5 -1 -10 4 -10 6 0 11 5 11 10 0 6 -2 10 -4 10 -3 0
-8 -4 -11 -10z"/>
<path d="M7475 7919 c-4 -6 -5 -12 -2 -15 2 -3 7 2 10 11 7 17 1 20 -8 4z"/>
<path d="M7711 7914 c0 -11 3 -14 6 -6 3 7 2 16 -1 19 -3 4 -6 -2 -5 -13z"/>
<path d="M7301 7861 c-37 -38 -58 -81 -40 -81 5 0 9 3 9 8 0 4 13 21 29 37 29
32 56 75 46 75 -3 0 -23 -18 -44 -39z"/>
<path d="M9172 7848 c-14 -14 -16 -28 -3 -28 9 0 24 30 18 36 -2 2 -9 -2 -15
-8z"/>
<path d="M9077 7744 c-4 -4 -7 -14 -7 -23 0 -11 3 -12 11 -4 6 6 10 16 7 23
-2 6 -7 8 -11 4z"/>
<path d="M9176 7635 c-9 -24 -7 -55 3 -55 12 0 22 53 12 63 -5 5 -11 1 -15 -8z"/>
<path d="M8991 6524 c0 -11 3 -14 6 -6 3 7 2 16 -1 19 -3 4 -6 -2 -5 -13z"/>
<path d="M3330 6109 c0 -5 5 -7 10 -4 6 3 10 8 10 11 0 2 -4 4 -10 4 -5 0 -10
-5 -10 -11z"/>
<path d="M7911 5734 c0 -11 3 -14 6 -6 3 7 2 16 -1 19 -3 4 -6 -2 -5 -13z"/>
<path d="M8550 5678 c0 -31 3 -39 10 -28 13 20 13 57 0 65 -6 4 -10 -11 -10
-37z"/>
<path d="M4828 5584 c-5 -4 -8 -19 -8 -33 0 -18 3 -22 11 -14 6 6 9 21 7 33
-1 12 -6 18 -10 14z"/>
<path d="M7221 5454 c0 -11 3 -14 6 -6 3 7 2 16 -1 19 -3 4 -6 -2 -5 -13z"/>
<path d="M4938 5283 c-19 -23 -31 -43 -24 -43 2 0 14 14 26 30 23 33 22 40 -2
13z"/>
<path d="M7104 4889 c-3 -6 -1 -16 5 -22 8 -8 11 -5 11 11 0 24 -5 28 -16 11z"/>
<path d="M4875 4760 c-4 -12 -5 -24 -2 -27 3 -2 8 5 12 17 4 12 5 24 2 27 -3
2 -8 -5 -12 -17z"/>
<path d="M7102 4548 c-1 -15 -6 -30 -12 -33 -5 -3 -10 -14 -10 -23 0 -15 1
-15 16 -1 10 11 14 28 11 50 -3 28 -4 29 -5 7z"/>
<path d="M7060 4420 c-6 -11 -7 -20 -2 -20 6 0 12 9 15 20 3 11 3 20 1 20 -2
0 -8 -9 -14 -20z"/>
<path d="M7070 4375 c0 -8 7 -15 15 -15 8 0 15 4 15 9 0 5 -7 11 -15 15 -9 3
-15 0 -15 -9z"/>
<path d="M5001 4134 c0 -11 3 -14 6 -6 3 7 2 16 -1 19 -3 4 -6 -2 -5 -13z"/>
<path d="M4987 4051 c-4 -17 -3 -21 5 -13 5 5 8 16 6 23 -3 8 -7 3 -11 -10z"/>
<path d="M5000 3465 c0 -8 2 -15 4 -15 2 0 6 7 10 15 3 8 1 15 -4 15 -6 0 -10
-7 -10 -15z"/>
<path d="M5031 2904 c0 -11 3 -14 6 -6 3 7 2 16 -1 19 -3 4 -6 -2 -5 -13z"/>
<path d="M7110 2116 c0 -9 5 -16 10 -16 6 0 10 4 10 9 0 6 -4 13 -10 16 -5 3
-10 -1 -10 -9z"/>
<path d="M7050 1800 c0 -5 5 -10 11 -10 5 0 7 5 4 10 -3 6 -8 10 -11 10 -2 0
-4 -4 -4 -10z"/>
<path d="M4910 1219 c0 -5 5 -7 10 -4 6 3 10 8 10 11 0 2 -4 4 -10 4 -5 0 -10
-5 -10 -11z"/>
<path d="M5810 480 c0 -5 5 -10 11 -10 5 0 7 5 4 10 -3 6 -8 10 -11 10 -2 0
-4 -4 -4 -10z"/>
<path d="M6711 444 c0 -11 3 -14 6 -6 3 7 2 16 -1 19 -3 4 -6 -2 -5 -13z"/>
<path d="M6251 384 c0 -11 3 -14 6 -6 3 7 2 16 -1 19 -3 4 -6 -2 -5 -13z"/>
</g>
</svg>
